<svg xmlns="http://www.w3.org/2000/svg" xmlns:xlink="http://www.w3.org/1999/xlink" width="1920" height="1080" viewBox="0 0 1920 1080">
  <defs>
    <filter id="Ellipse_4" x="45.5" y="171.5" width="1343" height="1369" filterUnits="userSpaceOnUse">
      <feOffset dy="3" input="SourceAlpha"/>
      <feGaussianBlur stdDeviation="49.5" result="blur"/>
      <feFlood flood-color="#fff"/>
      <feComposite operator="in" in2="blur"/>
      <feComposite in="SourceGraphic"/>
    </filter>
    <filter id="Ellipse_4-2" x="45.5" y="171.5" width="1343" height="1369" filterUnits="userSpaceOnUse">
      <feOffset dx="3" dy="3" input="SourceAlpha"/>
      <feGaussianBlur stdDeviation="49.5" result="blur-2"/>
      <feFlood flood-color="#fff" result="color"/>
      <feComposite operator="out" in="SourceGraphic" in2="blur-2"/>
      <feComposite operator="in" in="color"/>
      <feComposite operator="in" in2="SourceGraphic"/>
    </filter>
    <filter id="Ellipse_8" x="974.5" y="360.5" width="1786" height="1786" filterUnits="userSpaceOnUse">
      <feOffset dy="3" input="SourceAlpha"/>
      <feGaussianBlur stdDeviation="49.5" result="blur-3"/>
      <feFlood flood-color="#fff"/>
      <feComposite operator="in" in2="blur-3"/>
      <feComposite in="SourceGraphic"/>
    </filter>
    <filter id="Ellipse_8-2" x="974.5" y="360.5" width="1786" height="1786" filterUnits="userSpaceOnUse">
      <feOffset dy="3" input="SourceAlpha"/>
      <feGaussianBlur stdDeviation="49.5" result="blur-4"/>
      <feFlood flood-color="#efd2bb" result="color-2"/>
      <feComposite operator="out" in="SourceGraphic" in2="blur-4"/>
      <feComposite operator="in" in="color-2"/>
      <feComposite operator="in" in2="SourceGraphic"/>
    </filter>
    <filter id="Ellipse_7" x="568.5" y="-553.5" width="1574" height="1574" filterUnits="userSpaceOnUse">
      <feOffset dy="3" input="SourceAlpha"/>
      <feGaussianBlur stdDeviation="49.5" result="blur-5"/>
      <feFlood flood-color="#fff"/>
      <feComposite operator="in" in2="blur-5"/>
      <feComposite in="SourceGraphic"/>
    </filter>
    <filter id="Ellipse_7-2" x="568.5" y="-553.5" width="1574" height="1574" filterUnits="userSpaceOnUse">
      <feOffset dy="3" input="SourceAlpha"/>
      <feGaussianBlur stdDeviation="49.5" result="blur-6"/>
      <feFlood flood-color="#efd2bb" result="color-3"/>
      <feComposite operator="out" in="SourceGraphic" in2="blur-6"/>
      <feComposite operator="in" in="color-3"/>
      <feComposite operator="in" in2="SourceGraphic"/>
    </filter>
    <filter id="Path_4" x="854.812" y="245" width="1148.001" height="895.49" filterUnits="userSpaceOnUse">
      <feOffset dy="3" input="SourceAlpha"/>
      <feGaussianBlur stdDeviation="25" result="blur-7"/>
      <feFlood flood-color="#fff" flood-opacity="0.161"/>
      <feComposite operator="in" in2="blur-7"/>
      <feComposite in="SourceGraphic"/>
    </filter>
    <filter id="Path_6" x="439.175" y="413.624" width="875.825" height="884.752" filterUnits="userSpaceOnUse">
      <feOffset dy="3" input="SourceAlpha"/>
      <feGaussianBlur stdDeviation="25" result="blur-8"/>
      <feFlood flood-color="#fff" flood-opacity="0.161"/>
      <feComposite operator="in" in2="blur-8"/>
      <feComposite in="SourceGraphic"/>
    </filter>
    <filter id="Path_7" x="141.748" y="274.625" width="744.853" height="698.754" filterUnits="userSpaceOnUse">
      <feOffset dy="3" input="SourceAlpha"/>
      <feGaussianBlur stdDeviation="25" result="blur-9"/>
      <feFlood flood-color="#fff" flood-opacity="0.161"/>
      <feComposite operator="in" in2="blur-9"/>
      <feComposite in="SourceGraphic"/>
    </filter>
    <filter id="Path_8" x="1207.658" y="574.019" width="787.342" height="399.36" filterUnits="userSpaceOnUse">
      <feOffset dy="3" input="SourceAlpha"/>
      <feGaussianBlur stdDeviation="25" result="blur-10"/>
      <feFlood flood-color="#fff" flood-opacity="0.161"/>
      <feComposite operator="in" in2="blur-10"/>
      <feComposite in="SourceGraphic"/>
    </filter>
    <filter id="Path_5" x="777.845" y="72.409" width="1142.02" height="858.217" filterUnits="userSpaceOnUse">
      <feOffset dy="3" input="SourceAlpha"/>
      <feGaussianBlur stdDeviation="25" result="blur-11"/>
      <feFlood flood-color="#fff" flood-opacity="0.161"/>
      <feComposite operator="in" in2="blur-11"/>
      <feComposite in="SourceGraphic"/>
    </filter>
    <filter id="Path_3" x="392.33" y="-43.15" width="1511.341" height="1495.293" filterUnits="userSpaceOnUse">
      <feOffset dy="3" input="SourceAlpha"/>
      <feGaussianBlur stdDeviation="49.5" result="blur-12"/>
      <feFlood flood-color="#fff"/>
      <feComposite operator="in" in2="blur-12"/>
      <feComposite in="SourceGraphic"/>
    </filter>
    <filter id="Path_1" x="-257.437" y="-536.879" width="1399.937" height="1705.757" filterUnits="userSpaceOnUse">
      <feOffset dy="3" input="SourceAlpha"/>
      <feGaussianBlur stdDeviation="49.5" result="blur-13"/>
      <feFlood flood-color="#fff"/>
      <feComposite operator="in" in2="blur-13"/>
      <feComposite in="SourceGraphic"/>
    </filter>
    <clipPath id="clip-Web_1920_1">
      <rect width="1920" height="1080"/>
    </clipPath>
  </defs>
  <g id="Web_1920_1" data-name="Web 1920 – 1" clip-path="url(#clip-Web_1920_1)">
    <rect width="1920" height="1080" fill="#fff"/>
    <g data-type="innerShadowGroup">
      <g transform="matrix(1, 0, 0, 1, 0, 0)" filter="url(#Ellipse_4)">
        <ellipse id="Ellipse_4-3" data-name="Ellipse 4" cx="523" cy="536" rx="523" ry="536" transform="translate(194 317)" fill="#f6f1e9"/>
      </g>
      <g transform="matrix(1, 0, 0, 1, 0, 0)" filter="url(#Ellipse_4-2)">
        <ellipse id="Ellipse_4-4" data-name="Ellipse 4" cx="523" cy="536" rx="523" ry="536" transform="translate(194 317)" fill="#fff"/>
      </g>
    </g>
    <g data-type="innerShadowGroup">
      <g transform="matrix(1, 0, 0, 1, 0, 0)" filter="url(#Ellipse_8)">
        <circle id="Ellipse_8-3" data-name="Ellipse 8" cx="744.5" cy="744.5" r="744.5" transform="translate(1123 506)" fill="#efd2bb" opacity="0.747"/>
      </g>
      <g transform="matrix(1, 0, 0, 1, 0, 0)" filter="url(#Ellipse_8-2)">
        <circle id="Ellipse_8-4" data-name="Ellipse 8" cx="744.5" cy="744.5" r="744.5" transform="translate(1123 506)" fill="#fff" opacity="0.747"/>
      </g>
    </g>
    <g data-type="innerShadowGroup">
      <g transform="matrix(1, 0, 0, 1, 0, 0)" filter="url(#Ellipse_7)">
        <circle id="Ellipse_7-3" data-name="Ellipse 7" cx="638.5" cy="638.5" r="638.5" transform="translate(717 -408)" fill="#b57b93" opacity="0.296"/>
      </g>
      <g transform="matrix(1, 0, 0, 1, 0, 0)" filter="url(#Ellipse_7-2)">
        <circle id="Ellipse_7-4" data-name="Ellipse 7" cx="638.5" cy="638.5" r="638.5" transform="translate(717 -408)" fill="#fff" opacity="0.296"/>
      </g>
    </g>
    <g transform="matrix(1, 0, 0, 1, 0, 0)" filter="url(#Path_4)">
      <path id="Path_4-2" data-name="Path 4" d="M1082.353,103c-122.28,16.25-200.23,94.976-284.021,111.688-170.824,54.122-398.375,77.707-398.375,77.707S229.991,381.084,194.333,472.66,181.3,636.58,181.3,636.58,154.852,744.4,298.639,678.556,345.427,663.845,440.2,551.512,533.065,374.7,697.171,342.3,839.515,226.266,963.319,209.985,1082.353,103,1082.353,103Z" transform="matrix(-0.98, 0.17, -0.17, -0.98, 2117.27, 975.97)" fill="#b57b93"/>
    </g>
    <g transform="matrix(1, 0, 0, 1, 0, 0)" filter="url(#Path_6)">
      <path id="Path_6-2" data-name="Path 6" d="M720.376,103c-73.54,13.46-120.419,78.668-170.812,92.51C446.83,240.338,309.98,259.874,309.98,259.874S207.762,333.334,186.317,409.185s-7.84,135.774-7.84,135.774-15.9,89.307,70.57,34.768,28.139-12.185,85.136-105.229S390.032,328.05,488.726,301.211s85.607-96.111,160.063-109.6S720.376,103,720.376,103Z" transform="translate(325.75 989.89) rotate(-52)" fill="#f5e1d2"/>
    </g>
    <g transform="matrix(1, 0, 0, 1, 0, 0)" filter="url(#Path_7)">
      <path id="Path_7-2" data-name="Path 7" d="M720.376,103c-73.54,13.46-120.419,78.668-170.812,92.51C446.83,240.338,309.98,259.874,309.98,259.874S207.762,333.334,186.317,409.185s-7.84,135.774-7.84,135.774-15.9,89.307,70.57,34.768,28.139-12.185,85.136-105.229S390.032,328.05,488.726,301.211s85.607-96.111,160.063-109.6S720.376,103,720.376,103Z" transform="matrix(-0.99, 0.1, -0.1, -0.99, 995.64, 922.51)" fill="#f5e1d2"/>
    </g>
    <g transform="matrix(1, 0, 0, 1, 0, 0)" filter="url(#Path_8)">
      <path id="Path_8-2" data-name="Path 8" d="M794.676,103c-83.545,4.482-136.8,26.194-194.049,30.8-116.711,14.926-272.178,21.431-272.178,21.431s-116.124,24.46-140.486,49.716-8.906,45.208-8.906,45.208-18.068,29.736,80.17,11.576,31.967-4.057,96.718-35.038,63.447-48.762,175.568-57.7,97.253-32,181.838-36.492S794.676,103,794.676,103Z" transform="translate(2106.86 886.78) rotate(172)" fill="#e2beb4"/>
    </g>
    <g transform="matrix(1, 0, 0, 1, 0, 0)" filter="url(#Path_5)">
      <path id="Path_5-2" data-name="Path 5" d="M1078.746,169.8c-48.813,7.792-187.518-15.309-187.518-15.309s-192.1-16.621-228.194-7.975C521.265,200.476,361.562,283.461,361.562,283.461s-141.057,88.418-170.65,179.713-10.819,163.419-10.819,163.419-21.948,107.49,97.383,41.847,38.83-14.666,117.484-126.655,64.951-206.364,201.145-238.668,145.871-56.105,248.617-72.337S1078.746,169.8,1078.746,169.8Z" transform="translate(813.42 -30.22) rotate(11)" fill="#b57b93"/>
    </g>
    <g transform="matrix(1, 0, 0, 1, 0, 0)" filter="url(#Path_3)">
      <path id="Path_3-2" data-name="Path 3" d="M589.109,311.13c325.356,0,589.109-169.652,589.109,56.871S914.464,778.157,589.109,778.157,0,594.524,0,368,263.753,311.13,589.109,311.13Z" transform="matrix(-0.72, 0.69, -0.69, -0.72, 1928.92, 662.11)" fill="#fff" opacity="0.865"/>
    </g>
    <g transform="matrix(1, 0, 0, 1, 0, 0)" filter="url(#Path_1)">
      <path id="Path_1-2" data-name="Path 1" d="M630.571,322.781c348.255,0,630.571-202.052,630.571,67.732S978.825,879,630.571,879,0,660.3,0,390.513,282.316,322.781,630.571,322.781Z" transform="translate(-335.63 645.9) rotate(-65)" fill="#fff"/>
    </g>
    <g id="Blur-14" data-name="Blur">
      <rect id="Blur-15" data-name="Blur" width="1920" height="1080" fill="#fff"/>
      <rect id="Blur-16" data-name="Blur" width="1920" height="1080" fill="#fff"/>
    </g>
  </g>
</svg>
